<svg xmlns="http://www.w3.org/2000/svg" viewBox="0 0 512 512"><path d="M476.828 302.249c-10.794 0-19.542 8.748-19.542 19.542v151.125H39.087V54.718h151.125c10.794 0 19.542-8.748 19.542-19.542 0-10.794-8.748-19.542-19.542-19.542H19.545C8.751 15.634.003 24.382.003 35.176v457.282C.003 503.252 8.752 512 19.545 512h457.282c10.794 0 19.542-8.748 19.542-19.542V321.791c.001-10.793-8.748-19.542-19.541-19.542z"/><path d="M506.271 75.426l-69.693-69.7A19.515 19.515 0 00422.762 0a19.526 19.526 0 00-13.816 5.726L178.35 236.321a19.537 19.537 0 00-4.996 8.514l-27.359 97.059a19.55 19.55 0 0024.108 24.115l97.059-27.359a19.585 19.585 0 008.52-4.996l230.589-230.595c7.634-7.629 7.634-20.006 0-27.633zM251.658 302.412l-58.58 16.506 16.513-58.567 213.171-213.17 42.061 42.061-213.165 213.17z"/><path d="M178.979 263.278l27.636-27.636 69.69 69.69-27.637 27.635z"/></svg>